<?xml version="1.0" encoding="utf-8"?>
<!-- Generator: Adobe Illustrator 19.0.0, SVG Export Plug-In . SVG Version: 6.00 Build 0)  -->
<svg version="1.1" id="QUANTUM_BRILLIANCE" xmlns="http://www.w3.org/2000/svg" xmlns:xlink="http://www.w3.org/1999/xlink" x="0px"
	 y="0px" viewBox="0 0 2834.6 737" style="enable-background:new 0 0 2834.6 737;" xml:space="preserve">
<style type="text/css">
	.st0{fill:url(#XMLID_2_);}
</style>
<g id="COMPANY_NAME">
	<path id="XMLID_122_" d="M1314.7,261.9v40.6h-145.2c-38.2,0-69.4-11-93.6-33c-24.3-22-36.4-52-36.4-89.9
		c0-35.7,12.3-65.1,36.9-88.2c24.6-23.1,55-34.7,91.1-34.7c36.1,0,66.5,11.6,91.1,34.7c24.6,23.1,36.9,52.5,36.9,88.2
		c0,17.9-4,34.2-12,48.9c-8,14.8-19.9,25.7-35.7,32.7v0.7H1314.7z M1115.8,127.2c-14.3,14.4-21.5,31.9-21.5,52.5
		c0,20.6,7.2,38.1,21.5,52.5c14.3,14.4,31.5,21.7,51.6,21.7c20.1,0,37.3-7.2,51.6-21.7c14.3-14.4,21.5-31.9,21.5-52.5
		c0-20.5-7.2-38-21.5-52.5c-14.3-14.5-31.5-21.7-51.6-21.7C1147.4,105.5,1130.1,112.7,1115.8,127.2z"/>
	<path id="XMLID_120_" d="M1542.9,62.9v147.3c0,29.3-8.7,53.1-26.2,71.3c-17.5,18.2-42.4,27.3-74.6,27.3c-32.3,0-57.2-9.1-74.8-27.3
		c-17.6-18.2-26.4-41.9-26.4-71.3V62.9h52.8v145.3c0,14.9,4.6,27.3,13.7,37.1c9.1,9.8,20.7,14.7,34.7,14.7c13.7,0,25.2-5,34.4-14.9
		c9.1-9.9,13.7-22.2,13.7-36.9V62.9H1542.9z"/>
	<path id="XMLID_117_" d="M1567,302.6l102-239.7h45.5l104.1,239.7h-56.9l-22-50.8h-94.5l-20.3,50.8H1567z M1720.3,207.1l-29.5-74.5
		l-29.1,74.5H1720.3z"/>
	<path id="XMLID_115_" d="M1842.6,302.6V62.9h71.1L2016,229.7h1V62.9h52.8v239.7h-69.1l-104.6-170.6h-0.7v170.6H1842.6z"/>
	<path id="XMLID_113_" d="M2164.9,302.6v-193h-68.4V62.9h189.6v46.7h-68.4v193H2164.9z"/>
	<path id="XMLID_111_" d="M2515,62.9v147.3c0,29.3-8.8,53.1-26.2,71.3c-17.5,18.2-42.4,27.3-74.7,27.3s-57.2-9.1-74.8-27.3
		c-17.6-18.2-26.4-41.9-26.4-71.3V62.9h52.8v145.3c0,14.9,4.6,27.3,13.7,37.1c9.1,9.8,20.7,14.7,34.7,14.7c13.8,0,25.2-5,34.4-14.9
		c9.1-9.9,13.7-22.2,13.7-36.9V62.9H2515z"/>
	<path id="XMLID_109_" d="M2563.8,302.6V62.9h76.1l55.5,157.6l4.3-1.1l55.4-156.5h79.6v239.7h-52.8V118.7l0.8,0.5l-62.8,183.3h-42
		l-60.6-183.8h-0.7v183.8H2563.8z"/>
	<path id="XMLID_105_" d="M1039.4,556.5V376.7h70.3c15.3,0,28.3,3.7,39.1,11.2c10.8,7.4,16.2,18.8,16.2,34c0,9.8-2.8,18.1-8.4,24.9
		c-5.6,6.8-13.3,11.6-22.9,14.5v0.5c11.4,1.4,20.7,6.1,28,14.1s10.9,17.8,10.9,29.3c0,9.3-1.9,17.4-5.7,24.4
		c-3.8,6.9-9.1,12.3-15.8,16c-6.7,3.7-13.9,6.5-21.7,8.2c-7.7,1.8-16.1,2.7-25.1,2.7H1039.4z M1071.6,404.2v45.7h29.3
		c10.4,0,18.3-2,23.8-6.1c5.5-4.1,8.3-9.6,8.3-16.5c0-15.4-11.6-23.1-34.9-23.1H1071.6z M1071.6,477.3v51.8h29.5
		c26.3,0,39.5-8.8,39.5-26.4c0-9.1-3.1-15.7-9.2-19.5c-6.1-3.9-15.8-5.8-29-5.8H1071.6z"/>
	<path id="XMLID_102_" d="M1246.6,556.5V376.7h62.7c7.3,0,14.1,0.5,20.4,1.4c6.3,0.9,12.4,2.6,18.2,5.1c5.9,2.5,10.9,5.6,15,9.4
		c4.1,3.8,7.5,8.8,9.9,14.9s3.7,13,3.7,20.8c0,13.2-3.6,24.2-10.9,32.9c-7.3,8.7-17.6,14-30.8,15.9l47.9,79.5h-38.7l-41.8-76.2
		h-23.4v76.2H1246.6z M1278.7,452.9h25c4.4,0,8.2-0.1,11.2-0.4c3-0.2,6.5-0.9,10.3-1.8c3.8-0.9,6.9-2.3,9.3-3.9
		c2.4-1.7,4.4-4.2,6-7.4c1.6-3.2,2.4-7,2.4-11.4c0-5.1-1.1-9.3-3.2-12.7s-5.1-5.8-9-7.4c-3.9-1.5-7.7-2.6-11.3-3.1
		c-3.6-0.5-7.9-0.8-12.9-0.8h-27.8V452.9z"/>
	<path id="XMLID_100_" d="M1448.3,556.5V376.7h32.1v179.8H1448.3z"/>
	<path id="XMLID_92_" d="M1561.9,556.5V376.7h32.1v150.8h76.7v29H1561.9z"/>
	<path id="XMLID_90_" d="M1736.2,556.5V376.7h32.1v150.8h76.7v29H1736.2z"/>
	<path id="XMLID_88_" d="M1909.7,556.5V376.7h32.1v179.8H1909.7z"/>
	<path id="XMLID_85_" d="M2003.1,556.5l78.5-179.8h27.8l77.7,179.8h-36.7l-16.8-41.1h-78.3l-16.3,41.1H2003.1z M2066.2,488h56.2
		l-27.8-73.2L2066.2,488z"/>
	<path id="XMLID_83_" d="M2249.2,556.5V376.7h41.9l87.5,133.9h1V376.7h32.1v179.8H2371l-89.1-137.9h-0.5v137.9H2249.2z"/>
	<path id="XMLID_81_" d="M2642.8,400.6l-25,18.3c-11.2-11.8-23.9-17.8-38-17.8c-18.3,0-33.3,6.1-44.7,18.4
		c-11.5,12.3-17.2,27.6-17.2,45.8c0,19.5,5.7,35.5,17.2,48c11.4,12.5,26.4,18.8,44.7,18.8c15.6,0,29.1-7.3,40.5-21.8l26.5,18.8
		c-15.6,21.3-38,32-67.3,32c-28,0-50.9-8.6-68.7-25.9s-26.6-39.9-26.6-67.8c0-28.6,8.9-51.6,26.6-69.1
		c17.7-17.4,40.6-26.1,68.7-26.1C2605.3,372.2,2626.3,381.6,2642.8,400.6z"/>
	<path id="XMLID_79_" d="M2710.6,556.5V376.7h119.5v29h-87.4v44.2h82.8v29h-82.8v48.7h92v29H2710.6z"/>
</g>
<linearGradient id="XMLID_2_" gradientUnits="userSpaceOnUse" x1="986.9758" y1="-144.5175" x2="112.3741" y2="541.7576">
	<stop  offset="0" style="stop-color:#00B7F1"/>
	<stop  offset="0.3414" style="stop-color:#0B95DC"/>
	<stop  offset="0.7724" style="stop-color:#186FC5"/>
	<stop  offset="1" style="stop-color:#1D61BC"/>
</linearGradient>
<path id="XMLID_95_" class="st0" d="M686.3,0H215.5L0,252.3L450.9,737l450.9-484.8L686.3,0z M150.3,343.5l116.6-136.3h112.8
	c10,29.1,37.6,50.1,70,50.1c40.8,0,74.1-33.2,74.1-74.1s-33.2-74.1-74.1-74.1c-32.5,0-60,21-70,50.1H244.8L117.4,308.2l-53.3-57.3
	l173.4-203h381.9l27.8,161.2l-65.7,79.3c-9.6-4.6-20.3-7.2-31.6-7.2c-40.8,0-74.1,33.2-74.1,74.1s33.2,74.1,74.1,74.1
	s74.1-33.2,74.1-74.1c0-12-2.9-23.4-8.1-33.4l82.2-99.2L668.9,53.4l168.7,197.5L579.3,528.7l-142.9-39.6L400,411.4
	c15.8-13.6,25.8-33.7,25.8-56.1c0-40.8-33.2-74.1-74.1-74.1s-74.1,33.2-74.1,74.1s33.2,74.1,74.1,74.1c1.3,0,2.5-0.1,3.7-0.2
	l46.8,100.2l140.2,38.8l-91.6,98.5L150.3,343.5z M423.5,183.2c0-14.4,11.8-26.2,26.2-26.2s26.2,11.8,26.2,26.2
	c0,14.4-11.8,26.2-26.2,26.2S423.5,197.7,423.5,183.2z M576.1,355.3c0,14.4-11.8,26.2-26.2,26.2c-14.4,0-26.2-11.8-26.2-26.2
	s11.8-26.2,26.2-26.2C564.4,329.1,576.1,340.8,576.1,355.3z M325.6,355.3c0-14.4,11.8-26.2,26.2-26.2c14.4,0,26.2,11.8,26.2,26.2
	s-11.8,26.2-26.2,26.2C337.4,381.5,325.6,369.7,325.6,355.3z"/>
</svg>
